<svg xmlns="http://www.w3.org/2000/svg" version="1.1" xmlns:xlink="http://www.w3.org/1999/xlink" xmlns:svgjs="http://svgjs.dev/svgjs" width="1000" height="1000" viewBox="0 0 1000 1000"><rect width="1000" height="1000" fill="#000000"></rect><g transform="matrix(0.7,0,0,0.7,149.57575757575756,451.5174593085325)"><svg viewBox="0 0 396 55" data-background-color="#ffffff" preserveAspectRatio="xMidYMid meet" height="138" width="1000" xmlns="http://www.w3.org/2000/svg" xmlns:xlink="http://www.w3.org/1999/xlink"><g id="tight-bounds" transform="matrix(1,0,0,1,0.2400000000000091,0.10393259902662066)"><svg viewBox="0 0 395.52 54.79213636545878" height="54.79213636545878" width="395.52"><g><svg viewBox="0 0 395.52 54.79213636545878" height="54.79213636545878" width="395.52"><g><svg viewBox="0 0 395.52 54.79213636545878" height="54.79213636545878" width="395.52"><g><svg viewBox="0 0 395.52 54.79213636545878" height="54.79213636545878" width="395.52"><g><svg viewBox="0 0 395.52 33.60895336787565" height="33.60895336787565" width="395.52"><g transform="matrix(1,0,0,1,0,0)"><svg width="395.52" viewBox="3 -32.349998474121094 388.4200134277344 32.79999923706055" height="33.60895336787565" data-palette-color="#202046"><g class="undefined-text-0" data-fill-palette-color="primary" id="text-0"><path d="M33.25-32.05L36.4 0 32.8 0 32.05-9.75 30.35-25.7 30-25.7 21.1-3.7 17.8-3.7 9.35-25.7 8.95-25.7 7.25-10.05 6.4 0 3 0 6.35-32.05 10.9-32.05 12.55-27.15 19.5-8.9 19.8-8.9 27.1-27.45 28.75-32.05 33.25-32.05ZM48.2-32.05L47.95-10 48.15 0 44.1 0 44.35-9.65 44.1-32.05 48.2-32.05ZM70.34-32.3Q75.4-32.3 79.75-30.05L79.75-30.05 78.95-26.25 78.45-26.15Q76.05-27.65 74.02-28.3 72-28.95 69.75-28.95L69.75-28.95Q58.9-28.95 58.9-15.55L58.9-15.55Q58.9-9.1 61.42-6.08 63.95-3.05 69.25-3.05L69.25-3.05Q70.65-3.05 72.07-3.3 73.5-3.55 75.75-4.25L75.75-4.25 75.84-8 75.8-12.8 79.55-13.1 79.45-8.55 79.65-1.55Q76.4-0.55 73.9-0.1 71.4 0.35 69.05 0.35L69.05 0.35Q61.9 0.35 58.32-3.7 54.75-7.75 54.75-15.4L54.75-15.4Q54.75-23.65 58.8-27.98 62.85-32.3 70.34-32.3L70.34-32.3ZM110.44-32.05L110.39-15.75 110.34-12.15Q110.44-6.25 107.24-2.95 104.04 0.35 98.14 0.35L98.14 0.35Q92.49 0.35 89.47-2.8 86.44-5.95 86.54-11.7L86.54-11.7 86.59-16.05 86.54-32.05 90.49-32.05 90.34-12.2Q90.29-7.7 92.34-5.43 94.39-3.15 98.44-3.15L98.44-3.15Q102.49-3.15 104.59-5.3 106.69-7.45 106.64-11.7L106.64-11.7 106.44-32.05 110.44-32.05ZM136.84-3.5L137.09-3.1 136.79 0 118.79 0 119.04-9.65 118.79-32.05 136.84-32.05 137.04-31.65 136.74-28.55 129.19-28.7 122.84-28.6 122.74-18.1 128.74-18 134.04-18.15 134.34-17.8 133.99-14.7 128.39-14.8 122.69-14.75 122.64-10 122.79-3.35 129.14-3.3 136.84-3.5ZM158.59-3.35L158.89-3 158.54 0 142.74 0 142.99-9.65 142.74-32.05 146.84-32.05 146.59-10 146.74-3.35 158.59-3.35Z" fill="#ffffff" data-fill-palette-color="primary"></path><path d="M175.14-32.35Q181.74-32.35 185.27-28.3 188.79-24.25 188.79-16.65L188.79-16.65Q188.79-8.45 185.04-4.03 181.29 0.4 174.34 0.4L174.34 0.4Q167.84 0.4 164.32-3.8 160.79-8 160.79-15.75L160.79-15.75Q160.79-23.75 164.52-28.05 168.24-32.35 175.14-32.35L175.14-32.35ZM174.89-29.1Q164.89-29.1 164.89-16.2L164.89-16.2Q164.89-9.35 167.32-6.05 169.74-2.75 174.64-2.75L174.64-2.75Q184.64-2.75 184.64-15.9L184.64-15.9Q184.64-22.6 182.22-25.85 179.79-29.1 174.89-29.1L174.89-29.1ZM218.24-32.05L218.19-15.75 218.14-12.15Q218.24-6.25 215.04-2.95 211.84 0.35 205.94 0.35L205.94 0.35Q200.29 0.35 197.26-2.8 194.24-5.95 194.34-11.7L194.34-11.7 194.39-16.05 194.34-32.05 198.29-32.05 198.14-12.2Q198.09-7.7 200.14-5.43 202.19-3.15 206.24-3.15L206.24-3.15Q210.29-3.15 212.39-5.3 214.49-7.45 214.44-11.7L214.44-11.7 214.24-32.05 218.24-32.05ZM245.09-32.05L245.39-31.65 245.09-28.55 239.48-28.85 236.23-28.85 236.09-10 236.23 0 232.19 0 232.48-9.65 232.23-28.85 228.98-28.85 223.28-28.55 223.03-28.95 223.34-32.05 245.09-32.05ZM262.68-32.25Q269.53-32.25 273.18-28.35 276.83-24.45 276.83-17.15L276.83-17.15Q276.83-8.7 272.88-4.2 268.93 0.3 261.53 0.3L261.53 0.3Q259.48 0.3 256.56 0.23 253.63 0.15 251.13 0L251.13 0 251.08 0 251.33-9.65 251.08-32.05 251.13-32.05 262.68-32.25ZM262.18-3.05Q267.28-3.05 270.01-6.38 272.73-9.7 272.73-16.3L272.73-16.3Q272.73-28.9 262.38-28.9L262.38-28.9Q259.23-28.9 255.13-28.7L255.13-28.7 254.93-10 255.08-3.35Q256.63-3.2 258.81-3.13 260.98-3.05 262.18-3.05L262.18-3.05ZM294.98-32.35Q301.58-32.35 305.11-28.3 308.63-24.25 308.63-16.65L308.63-16.65Q308.63-8.45 304.88-4.03 301.13 0.4 294.18 0.4L294.18 0.4Q287.68 0.4 284.16-3.8 280.63-8 280.63-15.75L280.63-15.75Q280.63-23.75 284.36-28.05 288.08-32.35 294.98-32.35L294.98-32.35ZM294.73-29.1Q284.73-29.1 284.73-16.2L284.73-16.2Q284.73-9.35 287.16-6.05 289.58-2.75 294.48-2.75L294.48-2.75Q304.48-2.75 304.48-15.9L304.48-15.9Q304.48-22.6 302.06-25.85 299.63-29.1 294.73-29.1L294.73-29.1ZM326.73-32.35Q333.33-32.35 336.85-28.3 340.38-24.25 340.38-16.65L340.38-16.65Q340.38-8.45 336.63-4.03 332.88 0.4 325.93 0.4L325.93 0.4Q319.43 0.4 315.9-3.8 312.38-8 312.38-15.75L312.38-15.75Q312.38-23.75 316.1-28.05 319.83-32.35 326.73-32.35L326.73-32.35ZM326.48-29.1Q316.48-29.1 316.48-16.2L316.48-16.2Q316.48-9.35 318.9-6.05 321.33-2.75 326.23-2.75L326.23-2.75Q336.23-2.75 336.23-15.9L336.23-15.9Q336.23-22.6 333.8-25.85 331.38-29.1 326.48-29.1L326.48-29.1ZM359.92-12.95Q363.23-7.5 368.23-0.95L368.23-0.95 368.18-0.45Q366.38 0.25 364.48 0.45L364.48 0.45 363.93 0.1Q359.83-6.05 356.58-11.9L356.58-11.9 350.73-11.9 350.73-10 350.92 0 346.88 0 347.13-9.65 346.88-32.05 356.67-32.1Q361.38-32.1 363.95-29.73 366.53-27.35 366.53-22.95L366.53-22.95Q366.53-19.65 364.8-17.03 363.08-14.4 359.92-12.95L359.92-12.95ZM350.92-28.65L350.78-15.3 356.78-15.15Q362.38-16.75 362.38-22.6L362.38-22.6Q362.38-25.65 360.73-27.18 359.08-28.7 355.78-28.8L355.78-28.8 350.92-28.65ZM383.32-32.3Q386.77-32.3 390.47-30.8L390.47-30.8 389.82-26.95 389.12-26.75Q387.67-27.85 386.05-28.45 384.42-29.05 382.82-29.05L382.82-29.05Q380.97-29.05 379.6-28.3 378.22-27.55 377.5-26.35 376.77-25.15 376.77-23.85L376.77-23.85Q376.77-22.5 377.6-21.48 378.42-20.45 379.67-19.7 380.92-18.95 383.07-17.9L383.07-17.9Q385.77-16.65 387.42-15.58 389.07-14.5 390.25-12.85 391.42-11.2 391.42-8.85L391.42-8.85Q391.42-6.35 390.07-4.25 388.72-2.15 386.27-0.9 383.82 0.35 380.67 0.35L380.67 0.35Q378.57 0.35 376.3-0.23 374.02-0.8 372.07-1.9L372.07-1.9 372.57-6 373.12-6.25Q374.87-4.55 377-3.73 379.12-2.9 381.07-2.9L381.07-2.9Q382.97-2.9 384.45-3.65 385.92-4.4 386.7-5.65 387.47-6.9 387.47-8.3L387.47-8.3Q387.47-10.4 385.87-11.68 384.27-12.95 381.02-14.45L381.02-14.45Q378.37-15.75 376.77-16.78 375.17-17.8 374.02-19.43 372.87-21.05 372.87-23.4L372.87-23.4Q372.87-25.85 374.2-27.9 375.52-29.95 377.9-31.13 380.27-32.3 383.32-32.3L383.32-32.3Z" fill="#ffffff" data-fill-palette-color="secondary"></path></g></svg></g></svg></g><g transform="matrix(1,0,0,1,163.310208,41.54322064315026)"><svg viewBox="0 0 232.209792 13.24891572230852" height="13.24891572230852" width="232.209792"><g transform="matrix(1,0,0,1,0,0)"><svg width="232.209792" viewBox="3 -37.5 836.8200073242188 47.75" height="13.24891572230852" data-palette-color="#3886ce"><path d="M14.1 0L3 0 3-0.8 6.95-2.8 8-30.15 3.7-32.2 3.7-33 12.95-33 24.5-6.4 36-33 44.8-33 44.8-32.2 40.6-30.2 41.45-2.8 44.95-0.8 44.95 0 33.45 0 33.45-0.8 37.15-2.75 36.65-27.4 24.7 0.25 22.45 0.25 10.7-27.05 10.05-2.75 14.1-0.8 14.1 0ZM61.45 0.5L61.45 0.5Q58.15 0.5 55.67-1.05 53.2-2.6 51.82-5.25 50.45-7.9 50.45-11.25L50.45-11.25Q50.45-14.6 51.82-17.25 53.2-19.9 55.67-21.45 58.15-23 61.45-23L61.45-23Q64.75-23 67.22-21.45 69.7-19.9 71.07-17.25 72.45-14.6 72.45-11.25L72.45-11.25Q72.45-7.9 71.07-5.25 69.7-2.6 67.22-1.05 64.75 0.5 61.45 0.5ZM62.15-1.65L62.15-1.65Q64.15-1.65 65.45-2.9 66.75-4.15 67.35-6.13 67.95-8.1 67.95-10.25L67.95-10.25Q67.95-12.9 67.22-15.35 66.5-17.8 64.92-19.35 63.35-20.9 60.85-20.9L60.85-20.9Q58.8-20.9 57.5-19.65 56.2-18.4 55.57-16.45 54.95-14.5 54.95-12.3L54.95-12.3Q54.95-9.65 55.7-7.2 56.45-4.75 58.05-3.2 59.65-1.65 62.15-1.65ZM87.35 0L86.3 0 77.15-20.15 73.8-21.7 73.8-22.5 85.75-22.5 85.75-21.7 81.65-20.2 81.65-19.9 88.05-5.95 88.25-5.95 93.9-19.6 93.9-19.9 90.3-21.7 90.3-22.5 100.1-22.5 100.1-21.7 96.4-19.95 87.35 0ZM111.89 0.5L111.89 0.5Q107.04 0.5 104.24-2.45 101.44-5.4 101.44-10.25L101.44-10.25Q101.44-14 102.92-16.88 104.39-19.75 106.82-21.38 109.24-23 112.09-23L112.09-23Q116.04-23 118.32-20.25 120.59-17.5 120.59-12.35L120.59-12.35 120.34-12.1 105.39-12.1Q105.44-9.8 106.29-7.78 107.14-5.75 109.02-4.5 110.89-3.25 114.04-3.25L114.04-3.25Q116.79-3.25 120.49-5.25L120.49-5.25 120.64-5.25 120.64-4.75Q119.49-2.6 117.22-1.05 114.94 0.5 111.89 0.5ZM111.29-20.8L111.29-20.8Q108.89-20.8 107.37-19.13 105.84-17.45 105.49-14.4L105.49-14.4 116.79-14.4Q116.24-17.8 114.87-19.3 113.49-20.8 111.29-20.8ZM135.94 0L125.54 0 125.54-0.8 128.69-2.4 128.69-17.3 125.69-19.9 125.69-20.25 131.89-23 132.19-23 132.64-19.3 132.89-19.3Q134.74-21.2 136.47-22.1 138.19-23 140.24-23L140.24-23Q142.64-23 144.34-21.93 146.04-20.85 146.54-18.7L146.54-18.7 146.69-18.7Q148.79-20.9 150.62-21.95 152.44-23 154.64-23L154.64-23Q157.44-23 159.27-21.53 161.09-20.05 161.09-17.15L161.09-17.15 161.09-2.4 164.24-0.8 164.24 0 153.54 0 153.54-0.8 157.09-2.4 157.09-14.8Q157.09-17 155.77-18.15 154.44-19.3 152.39-19.3L152.39-19.3Q150.69-19.3 149.19-18.75 147.69-18.2 146.69-17.1L146.69-17.1 146.69-2.4 150.14-0.8 150.14 0 139.34 0 139.34-0.8 142.69-2.4 142.69-14.8Q142.69-17 141.37-18.15 140.04-19.3 137.99-19.3L137.99-19.3Q136.74-19.3 135.19-18.85 133.64-18.4 132.69-17.55L132.69-17.55 132.69-2.4 135.94-0.8 135.94 0ZM179.09 0.5L179.09 0.5Q174.24 0.5 171.44-2.45 168.64-5.4 168.64-10.25L168.64-10.25Q168.64-14 170.11-16.88 171.59-19.75 174.01-21.38 176.44-23 179.29-23L179.29-23Q183.24-23 185.51-20.25 187.79-17.5 187.79-12.35L187.79-12.35 187.54-12.1 172.59-12.1Q172.64-9.8 173.49-7.78 174.34-5.75 176.21-4.5 178.09-3.25 181.24-3.25L181.24-3.25Q183.99-3.25 187.69-5.25L187.69-5.25 187.84-5.25 187.84-4.75Q186.69-2.6 184.41-1.05 182.14 0.5 179.09 0.5ZM178.49-20.8L178.49-20.8Q176.09-20.8 174.56-19.13 173.04-17.45 172.69-14.4L172.69-14.4 183.99-14.4Q183.44-17.8 182.06-19.3 180.69-20.8 178.49-20.8ZM203.44 0L192.74 0 192.74-0.8 195.89-2.4 195.89-17.3 192.89-19.9 192.89-20.25 199.09-23 199.39-23 199.84-19.3 200.09-19.3Q201.99-21.2 203.76-22.1 205.54-23 207.69-23L207.69-23Q210.64-23 212.51-21.53 214.39-20.05 214.39-17.15L214.39-17.15 214.39-2.4 217.54-0.8 217.54 0 206.84 0 206.84-0.8 210.39-2.4 210.39-14.8Q210.39-17 209.01-18.15 207.64-19.3 205.44-19.3L205.44-19.3Q204.09-19.3 202.46-18.85 200.84-18.4 199.89-17.55L199.89-17.55 199.89-2.4 203.44-0.8 203.44 0ZM229.83 0.5L229.83 0.5Q227.63 0.5 226.03-0.8 224.43-2.1 224.43-4.45L224.43-4.45 224.43-20.15 220.33-20.15 220.33-20.45 224.58-22.5 228.13-28 228.43-28 228.43-22.5 235.03-22.5 235.03-20.15 228.43-20.15 228.43-5.3Q228.43-4 229.58-3.4 230.73-2.8 232.28-2.8L232.28-2.8Q233.23-2.8 234.06-2.9 234.88-3 235.48-3.15L235.48-3.15 235.63-3.15 235.63-2.65Q235.13-1.5 233.66-0.5 232.18 0.5 229.83 0.5ZM240.18 10.25L240.18 10.25 240.18 9.2Q242.28 8.1 243.23 6.7 244.18 5.3 244.18 3.75L244.18 3.75Q244.18 2.35 243.56 1.43 242.93 0.5 241.68-0.15L241.68-0.15 239.98-1.05 239.83-1.55 241.28-4.05Q241.63-4.6 241.88-4.88 242.13-5.15 242.53-5.15L242.53-5.15Q242.93-5.15 243.78-4.7L243.78-4.7Q245.33-3.8 246.21-2.2 247.08-0.6 247.08 1.25L247.08 1.25Q247.08 3.9 245.48 6.2 243.88 8.5 240.18 10.25ZM274.58 0L263.78 0 263.78-0.8 266.98-2.45 279.78-33.25 282.03-33.25 294.63-2.6 297.98-0.8 297.98 0 285.58 0 285.58-0.8 289.98-2.5 286.23-11.75 274.08-11.75 270.38-2.5 274.58-0.8 274.58 0ZM280.18-26.8L275.23-14.5 285.13-14.5 280.18-26.8ZM312.92 0L302.22 0 302.22-0.8 305.37-2.4 305.37-17.3 302.37-19.9 302.37-20.25 308.57-23 308.87-23 309.32-18.75 309.52-18.75Q310.67-20.6 311.65-21.53 312.62-22.45 313.47-22.73 314.32-23 315.17-23L315.17-23Q315.57-23 316.1-22.85 316.62-22.7 316.97-22.55L316.97-22.55Q317.52-22.3 318-21.95 318.47-21.6 318.47-21.15L318.47-21.15Q318.47-20.7 318.27-20.25L318.27-20.25 317.27-17.8 316.92-17.8 315.02-18.55Q314.47-18.8 313.95-18.85 313.42-18.9 312.92-18.9L312.92-18.9Q310.82-18.9 309.37-16.75L309.37-16.75 309.37-2.4 312.92-0.8 312.92 0ZM329.87 0.5L329.87 0.5Q327.67 0.5 326.07-0.8 324.47-2.1 324.47-4.45L324.47-4.45 324.47-20.15 320.37-20.15 320.37-20.45 324.62-22.5 328.17-28 328.47-28 328.47-22.5 335.07-22.5 335.07-20.15 328.47-20.15 328.47-5.3Q328.47-4 329.62-3.4 330.77-2.8 332.32-2.8L332.32-2.8Q333.27-2.8 334.1-2.9 334.92-3 335.52-3.15L335.52-3.15 335.67-3.15 335.67-2.65Q335.17-1.5 333.7-0.5 332.22 0.5 329.87 0.5ZM340.22 10.25L340.22 10.25 340.22 9.2Q342.32 8.1 343.27 6.7 344.22 5.3 344.22 3.75L344.22 3.75Q344.22 2.35 343.59 1.43 342.97 0.5 341.72-0.15L341.72-0.15 340.02-1.05 339.87-1.55 341.32-4.05Q341.67-4.6 341.92-4.88 342.17-5.15 342.57-5.15L342.57-5.15Q342.97-5.15 343.82-4.7L343.82-4.7Q345.37-3.8 346.24-2.2 347.12-0.6 347.12 1.25L347.12 1.25Q347.12 3.9 345.52 6.2 343.92 8.5 340.22 10.25ZM372.76 0.5L372.76 0.5Q368.46 0.5 365.81-1.88 363.16-4.25 363.16-8.15L363.16-8.15Q363.16-10.5 364.79-12.88 366.41-15.25 370.16-17.75L370.16-17.75Q368.31-19.7 367.44-20.98 366.56-22.25 366.29-23.3 366.01-24.35 366.01-25.7L366.01-25.7Q366.01-27.45 367.14-29.25 368.26-31.05 370.31-32.27 372.36-33.5 375.06-33.5L375.06-33.5Q378.96-33.5 381.11-31.7 383.26-29.9 383.26-27.1L383.26-27.1Q383.26-24.8 381.11-23 378.96-21.2 375.26-18.95L375.26-18.95Q375.66-18.55 376.06-18.15 376.46-17.75 376.91-17.3L376.91-17.3 384.91-9.3Q386.36-11.5 387.59-14.33 388.81-17.15 389.91-20.55L389.91-20.55 385.01-22.5 385.01-23.3 396.91-23.3 396.91-22.5 392.66-20.65Q391.06-16.95 389.49-13.78 387.91-10.6 386.21-8L386.21-8 391.66-2.6 395.81-0.8 395.81 0 387.76 0 383.36-4.4Q381.21-2.05 378.61-0.78 376.01 0.5 372.76 0.5ZM370.36-26.7L370.36-26.7Q370.36-25.05 371.21-23.63 372.06-22.2 374.06-20.15L374.06-20.15Q376.41-21.85 377.71-23.35 379.01-24.85 379.01-26.9L379.01-26.9Q379.01-28.9 377.79-30.08 376.56-31.25 374.71-31.25L374.71-31.25Q372.91-31.25 371.64-30.05 370.36-28.85 370.36-26.7ZM367.76-9.35L367.76-9.35Q367.76-7.25 368.71-5.78 369.66-4.3 371.26-3.53 372.86-2.75 374.71-2.75L374.71-2.75Q378.76-2.75 382.01-5.75L382.01-5.75 374.71-13.05Q373.71-14.05 372.86-14.9 372.01-15.75 371.31-16.5L371.31-16.5Q369.71-15.25 368.96-14.2 368.21-13.15 367.99-12 367.76-10.85 367.76-9.35ZM429.56 0.5L429.56 0.5Q425.96 0.5 422.93-0.78 419.91-2.05 417.66-4.33 415.41-6.6 414.16-9.7 412.91-12.8 412.91-16.5L412.91-16.5Q412.91-20.2 414.16-23.3 415.41-26.4 417.66-28.68 419.91-30.95 422.93-32.23 425.96-33.5 429.56-33.5L429.56-33.5Q433.16-33.5 436.21-32.23 439.26-30.95 441.51-28.68 443.76-26.4 445.01-23.3 446.26-20.2 446.26-16.5L446.26-16.5Q446.26-12.8 445.01-9.7 443.76-6.6 441.51-4.33 439.26-2.05 436.21-0.78 433.16 0.5 429.56 0.5ZM430.61-2L430.61-2Q433.81-2 436.23-3.6 438.66-5.2 440.03-8.1 441.41-11 441.41-14.95L441.41-14.95Q441.41-19.8 439.71-23.43 438.01-27.05 435.13-29.05 432.26-31.05 428.71-31.05L428.71-31.05Q425.51-31.05 423.03-29.48 420.56-27.9 419.16-25 417.76-22.1 417.76-18.15L417.76-18.15Q417.76-13.3 419.48-9.65 421.21-6 424.11-4 427.01-2 430.61-2ZM461.01 0.5L461.01 0.5Q458.06 0.5 456.18-0.98 454.31-2.45 454.31-5.35L454.31-5.35 454.31-20.15 451.16-21.7 451.16-22.5 458.31-22.5 458.31-7.7Q458.31-5.5 459.68-4.35 461.06-3.2 463.26-3.2L463.26-3.2Q464.61-3.2 466.23-3.65 467.86-4.1 468.81-4.95L468.81-4.95 468.81-20.15 465.26-21.7 465.26-22.5 472.81-22.5 472.81-2.25 476.36-0.8 476.36 0 468.81 0 468.81-3.15 468.56-3.15Q466.66-1.25 464.88-0.38 463.11 0.5 461.01 0.5ZM488.2 0.5L488.2 0.5Q486 0.5 484.4-0.8 482.8-2.1 482.8-4.45L482.8-4.45 482.8-20.15 478.7-20.15 478.7-20.45 482.95-22.5 486.5-28 486.8-28 486.8-22.5 493.4-22.5 493.4-20.15 486.8-20.15 486.8-5.3Q486.8-4 487.95-3.4 489.1-2.8 490.65-2.8L490.65-2.8Q491.6-2.8 492.43-2.9 493.25-3 493.85-3.15L493.85-3.15 494-3.15 494-2.65Q493.5-1.5 492.03-0.5 490.55 0.5 488.2 0.5ZM506.4 0.5L506.4 0.5Q503.9 0.5 501.93-0.75 499.95-2 498.83-4.28 497.7-6.55 497.7-9.7L497.7-9.7Q497.7-13.95 499.35-16.93 501-19.9 503.75-21.45 506.5-23 509.75-23L509.75-23Q511.15-23 512.2-22.88 513.25-22.75 514.1-22.55L514.1-22.55 514.1-31.8 510.85-34.4 510.85-34.75 517.8-37.5 518.1-37.5 518.1-2.25 521.65-0.8 521.65 0 514.6 0 514.2-2.55 513.85-2.55Q511.95-0.95 510.18-0.23 508.4 0.5 506.4 0.5ZM501.7-10.85L501.7-10.85Q501.7-6.7 503.9-4.83 506.1-2.95 509.15-2.95L509.15-2.95Q510.35-2.95 511.63-3.33 512.9-3.7 514.1-4.45L514.1-4.45 514.1-18.45Q512.9-19.5 511.73-20.03 510.55-20.55 509.1-20.55L509.1-20.55Q507.1-20.55 505.43-19.58 503.75-18.6 502.73-16.48 501.7-14.35 501.7-10.85ZM536.95 0.5L536.95 0.5Q533.65 0.5 531.17-1.05 528.7-2.6 527.32-5.25 525.95-7.9 525.95-11.25L525.95-11.25Q525.95-14.6 527.32-17.25 528.7-19.9 531.17-21.45 533.65-23 536.95-23L536.95-23Q540.25-23 542.72-21.45 545.2-19.9 546.57-17.25 547.95-14.6 547.95-11.25L547.95-11.25Q547.95-7.9 546.57-5.25 545.2-2.6 542.72-1.05 540.25 0.5 536.95 0.5ZM537.65-1.65L537.65-1.65Q539.65-1.65 540.95-2.9 542.25-4.15 542.85-6.13 543.45-8.1 543.45-10.25L543.45-10.25Q543.45-12.9 542.72-15.35 542-17.8 540.42-19.35 538.85-20.9 536.35-20.9L536.35-20.9Q534.3-20.9 533-19.65 531.7-18.4 531.07-16.45 530.45-14.5 530.45-12.3L530.45-12.3Q530.45-9.65 531.2-7.2 531.95-4.75 533.55-3.2 535.15-1.65 537.65-1.65ZM563.95 0.5L563.95 0.5Q560.65 0.5 558.17-1.05 555.7-2.6 554.32-5.25 552.95-7.9 552.95-11.25L552.95-11.25Q552.95-14.6 554.32-17.25 555.7-19.9 558.17-21.45 560.65-23 563.95-23L563.95-23Q567.25-23 569.72-21.45 572.2-19.9 573.57-17.25 574.95-14.6 574.95-11.25L574.95-11.25Q574.95-7.9 573.57-5.25 572.2-2.6 569.72-1.05 567.25 0.5 563.95 0.5ZM564.65-1.65L564.65-1.65Q566.65-1.65 567.95-2.9 569.25-4.15 569.85-6.13 570.45-8.1 570.45-10.25L570.45-10.25Q570.45-12.9 569.72-15.35 569-17.8 567.42-19.35 565.85-20.9 563.35-20.9L563.35-20.9Q561.3-20.9 560-19.65 558.7-18.4 558.07-16.45 557.45-14.5 557.45-12.3L557.45-12.3Q557.45-9.65 558.2-7.2 558.95-4.75 560.55-3.2 562.15-1.65 564.65-1.65ZM590.74 0L580.04 0 580.04-0.8 583.19-2.4 583.19-17.3 580.19-19.9 580.19-20.25 586.39-23 586.69-23 587.14-18.75 587.34-18.75Q588.49-20.6 589.47-21.53 590.44-22.45 591.29-22.73 592.14-23 592.99-23L592.99-23Q593.39-23 593.92-22.85 594.44-22.7 594.79-22.55L594.79-22.55Q595.34-22.3 595.82-21.95 596.29-21.6 596.29-21.15L596.29-21.15Q596.29-20.7 596.09-20.25L596.09-20.25 595.09-17.8 594.74-17.8 592.84-18.55Q592.29-18.8 591.77-18.85 591.24-18.9 590.74-18.9L590.74-18.9Q588.64-18.9 587.19-16.75L587.19-16.75 587.19-2.4 590.74-0.8 590.74 0ZM622.24 0L611.44 0 611.44-0.8 614.64-2.45 627.44-33.25 629.69-33.25 642.29-2.6 645.64-0.8 645.64 0 633.24 0 633.24-0.8 637.64-2.5 633.89-11.75 621.74-11.75 618.04-2.5 622.24-0.8 622.24 0ZM627.84-26.8L622.89-14.5 632.79-14.5 627.84-26.8ZM658.18 0.5L658.18 0.5Q655.68 0.5 653.71-0.75 651.73-2 650.61-4.28 649.48-6.55 649.48-9.7L649.48-9.7Q649.48-13.95 651.13-16.93 652.78-19.9 655.53-21.45 658.28-23 661.53-23L661.53-23Q662.93-23 663.98-22.88 665.03-22.75 665.88-22.55L665.88-22.55 665.88-31.8 662.63-34.4 662.63-34.75 669.58-37.5 669.88-37.5 669.88-2.25 673.43-0.8 673.43 0 666.38 0 665.98-2.55 665.63-2.55Q663.73-0.95 661.96-0.23 660.18 0.5 658.18 0.5ZM653.48-10.85L653.48-10.85Q653.48-6.7 655.68-4.83 657.88-2.95 660.93-2.95L660.93-2.95Q662.13-2.95 663.41-3.33 664.68-3.7 665.88-4.45L665.88-4.45 665.88-18.45Q664.68-19.5 663.51-20.03 662.33-20.55 660.88-20.55L660.88-20.55Q658.88-20.55 657.21-19.58 655.53-18.6 654.51-16.48 653.48-14.35 653.48-10.85ZM687.63 0L686.58 0 677.43-20.15 674.08-21.7 674.08-22.5 686.03-22.5 686.03-21.7 681.93-20.2 681.93-19.9 688.33-5.95 688.53-5.95 694.18-19.6 694.18-19.9 690.58-21.7 690.58-22.5 700.38-22.5 700.38-21.7 696.68-19.95 687.63 0ZM712.18 0.5L712.18 0.5Q707.33 0.5 704.53-2.45 701.73-5.4 701.73-10.25L701.73-10.25Q701.73-14 703.2-16.88 704.68-19.75 707.1-21.38 709.53-23 712.38-23L712.38-23Q716.33-23 718.6-20.25 720.88-17.5 720.88-12.35L720.88-12.35 720.63-12.1 705.68-12.1Q705.73-9.8 706.58-7.78 707.43-5.75 709.3-4.5 711.18-3.25 714.33-3.25L714.33-3.25Q717.08-3.25 720.78-5.25L720.78-5.25 720.93-5.25 720.93-4.75Q719.78-2.6 717.5-1.05 715.23 0.5 712.18 0.5ZM711.58-20.8L711.58-20.8Q709.18-20.8 707.65-19.13 706.13-17.45 705.78-14.4L705.78-14.4 717.08-14.4Q716.53-17.8 715.15-19.3 713.78-20.8 711.58-20.8ZM736.53 0L725.83 0 725.83-0.8 728.98-2.4 728.98-17.3 725.98-19.9 725.98-20.25 732.18-23 732.48-23 732.93-19.3 733.18-19.3Q735.08-21.2 736.85-22.1 738.63-23 740.78-23L740.78-23Q743.73-23 745.6-21.53 747.48-20.05 747.48-17.15L747.48-17.15 747.48-2.4 750.63-0.8 750.63 0 739.93 0 739.93-0.8 743.48-2.4 743.48-14.8Q743.48-17 742.1-18.15 740.73-19.3 738.53-19.3L738.53-19.3Q737.18-19.3 735.55-18.85 733.93-18.4 732.98-17.55L732.98-17.55 732.98-2.4 736.53-0.8 736.53 0ZM762.92 0.5L762.92 0.5Q760.72 0.5 759.12-0.8 757.52-2.1 757.52-4.45L757.52-4.45 757.52-20.15 753.42-20.15 753.42-20.45 757.67-22.5 761.22-28 761.52-28 761.52-22.5 768.12-22.5 768.12-20.15 761.52-20.15 761.52-5.3Q761.52-4 762.67-3.4 763.82-2.8 765.37-2.8L765.37-2.8Q766.32-2.8 767.15-2.9 767.97-3 768.57-3.15L768.57-3.15 768.72-3.15 768.72-2.65Q768.22-1.5 766.75-0.5 765.27 0.5 762.92 0.5ZM781.47 0.5L781.47 0.5Q778.52 0.5 776.65-0.98 774.77-2.45 774.77-5.35L774.77-5.35 774.77-20.15 771.62-21.7 771.62-22.5 778.77-22.5 778.77-7.7Q778.77-5.5 780.15-4.35 781.52-3.2 783.72-3.2L783.72-3.2Q785.07-3.2 786.7-3.65 788.32-4.1 789.27-4.95L789.27-4.95 789.27-20.15 785.72-21.7 785.72-22.5 793.27-22.5 793.27-2.25 796.82-0.8 796.82 0 789.27 0 789.27-3.15 789.02-3.15Q787.12-1.25 785.35-0.38 783.57 0.5 781.47 0.5ZM811.57 0L800.87 0 800.87-0.8 804.02-2.4 804.02-17.3 801.02-19.9 801.02-20.25 807.22-23 807.52-23 807.97-18.75 808.17-18.75Q809.32-20.6 810.29-21.53 811.27-22.45 812.12-22.73 812.97-23 813.82-23L813.82-23Q814.22-23 814.74-22.85 815.27-22.7 815.62-22.55L815.62-22.55Q816.17-22.3 816.64-21.95 817.12-21.6 817.12-21.15L817.12-21.15Q817.12-20.7 816.92-20.25L816.92-20.25 815.92-17.8 815.57-17.8 813.67-18.55Q813.12-18.8 812.59-18.85 812.07-18.9 811.57-18.9L811.57-18.9Q809.47-18.9 808.02-16.75L808.02-16.75 808.02-2.4 811.57-0.8 811.57 0ZM831.07 0.5L831.07 0.5Q826.22 0.5 823.42-2.45 820.62-5.4 820.62-10.25L820.62-10.25Q820.62-14 822.09-16.88 823.57-19.75 825.99-21.38 828.42-23 831.27-23L831.27-23Q835.22-23 837.49-20.25 839.77-17.5 839.77-12.35L839.77-12.35 839.52-12.1 824.57-12.1Q824.62-9.8 825.47-7.78 826.32-5.75 828.19-4.5 830.07-3.25 833.22-3.25L833.22-3.25Q835.97-3.25 839.67-5.25L839.67-5.25 839.82-5.25 839.82-4.75Q838.67-2.6 836.39-1.05 834.12 0.5 831.07 0.5ZM830.47-20.8L830.47-20.8Q828.07-20.8 826.54-19.13 825.02-17.45 824.67-14.4L824.67-14.4 835.97-14.4Q835.42-17.8 834.04-19.3 832.67-20.8 830.47-20.8Z" opacity="1" transform="matrix(1,0,0,1,0,0)" fill="#ffffff" class="undefined-text-1" data-fill-palette-color="secondary" id="text-1"></path></svg></g></svg></g></svg></g></svg></g><g></g></svg></g><defs></defs></svg><rect width="395.52" height="54.79213636545878" fill="none" stroke="none" visibility="hidden"></rect></g></svg></g></svg>